<?xml version="1.0" encoding="utf-8"?>
<!-- Generator: Adobe Illustrator 16.0.0, SVG Export Plug-In . SVG Version: 6.00 Build 0)  -->
<!DOCTYPE svg PUBLIC "-//W3C//DTD SVG 1.1//EN" "http://www.w3.org/Graphics/SVG/1.1/DTD/svg11.dtd">
<svg version="1.1" xmlns="http://www.w3.org/2000/svg" xmlns:xlink="http://www.w3.org/1999/xlink" x="0px" y="0px" width="306px"
	 height="306px" viewBox="0 0 306 306" enable-background="new 0 0 306 306" xml:space="preserve">
<g id="Layer_1">
	<g>
		<circle fill="#44A1FC" cx="153" cy="153" r="153"/>
		
			<radialGradient id="SVGID_1_" cx="153.2139" cy="152.7705" r="68.1719" gradientTransform="matrix(2.0628 0 0 2.0628 -162.3733 -162.7099)" gradientUnits="userSpaceOnUse">
			<stop  offset="0.2299" style="stop-color:#333333"/>
			<stop  offset="1" style="stop-color:#454042"/>
		</radialGradient>
		<circle fill="url(#SVGID_1_)" cx="153.677" cy="152.427" r="140.625"/>
		
			<path opacity="0.9" fill="none" stroke="#ABADB0" stroke-width="2.9795" stroke-miterlimit="10" stroke-dasharray="2.9795,1.4897,2.9795,1.4897,2.9795,1.4897" d="
			M272.765,152.427c0,65.777-53.319,119.091-119.089,119.091c-65.765,0-119.087-53.314-119.087-119.091
			c0-65.771,53.322-119.088,119.087-119.088C219.445,33.339,272.765,86.656,272.765,152.427z"/>
	</g>
</g>
<g id="Layer_2">
	<g>
		<circle fill="#44A1FC" cx="153" cy="153" r="153"/>
		
			<radialGradient id="SVGID_2_" cx="153.2139" cy="152.7705" r="68.1719" gradientTransform="matrix(2.0628 0 0 2.0628 -162.3733 -162.7099)" gradientUnits="userSpaceOnUse">
			<stop  offset="0.4049" style="stop-color:#808184"/>
			<stop  offset="1" style="stop-color:#454042"/>
		</radialGradient>
		<circle fill="url(#SVGID_2_)" cx="153.677" cy="152.427" r="140.625"/>
		
			<path opacity="0.9" fill="none" stroke="#ABADB0" stroke-width="2.9795" stroke-miterlimit="10" stroke-dasharray="2.9795,1.4897,2.9795,1.4897,2.9795,1.4897" d="
			M272.765,152.427c0,65.777-53.319,119.092-119.089,119.092c-65.765,0-119.087-53.314-119.087-119.092
			c0-65.771,53.322-119.088,119.087-119.088C219.445,33.339,272.765,86.656,272.765,152.427z"/>
	</g>
</g>
</svg>
