<?xml version="1.0" encoding="utf-8"?>
<!-- Generator: Adobe Illustrator 16.0.0, SVG Export Plug-In . SVG Version: 6.00 Build 0)  -->
<!DOCTYPE svg PUBLIC "-//W3C//DTD SVG 1.1//EN" "http://www.w3.org/Graphics/SVG/1.1/DTD/svg11.dtd">
<svg version="1.1" id="Layer_1" xmlns="http://www.w3.org/2000/svg" xmlns:xlink="http://www.w3.org/1999/xlink" x="0px" y="0px"
	 width="1260.927px" height="1158.757px" viewBox="0 0 1260.927 1158.757" enable-background="new 0 0 1260.927 1158.757"
	 xml:space="preserve">
<g>
	<path fill="none" stroke="#0C328B" stroke-width="9.0138" stroke-linecap="round" stroke-miterlimit="10" d="M239.156,454.067
		c0,0-13.911,34.14-8.662,59.685c0,0,14.011,33.103,13.574,34.865"/>
	<path fill="none" stroke="#0C328B" stroke-width="9.0138" stroke-miterlimit="10" d="M263.308,478.513
		c0,0,34.856-17.611,32.959-44.476l-4.734-33.918"/>
	<path fill="none" stroke="#0C328B" stroke-width="9.0138" stroke-linecap="round" stroke-miterlimit="10" d="M229.423,384.271
		c0,0-2.175,10.57,9.732,43.601"/>
	<path fill="none" stroke="#0C328B" stroke-width="4.5069" stroke-miterlimit="10" d="M261.558,466.187
		c0,0-5.66-30.829-20.55-38.315c0,0-8.312,13.213,10.274,53.73c0,0,5.901,9.25,12.026,0
		C263.308,481.602,256.745,478.078,261.558,466.187z"/>
	<path fill="#0C328B" d="M14.997,278.483L0.416,315.618c-1.611,5.609,1.603,11.469,7.174,13.088l293.995,73.941
		c0,0,4.823,1.122,5.587-5.178l-28.158-56.864"/>
	<g>
		<path fill="#0C328B" stroke="#FFFFFF" stroke-width="4.5069" stroke-miterlimit="10" d="M124.634,93.691l-39.713-8.993
			c-5.568-1.622-11.389,1.613-13,7.222L14.417,280.384c-1.612,5.609,1.602,11.468,7.172,13.089l260.385,59.333l-8.871-36.574"/>
		<g>
			<g>
				<text transform="matrix(-0.9601 -0.2585 0.2568 -0.9665 215.5679 270.1328)"><tspan x="0" y="0" fill="#FFFFFF" font-family="'Calibri-Bold'" font-size="21.2636">586</tspan><tspan x="32.332" y="0" fill="#FFFFFF" font-family="'Calibri-Bold'" font-size="21.2636" letter-spacing="-2.011">	</tspan><tspan x="34.451" y="0" fill="#FFFFFF" font-family="'Calibri-Bold'" font-size="21.2636">6 5842</tspan><tspan x="93.144" y="0" fill="#FFFFFF" font-family="'Calibri-Bold'" font-size="21.2636" letter-spacing="5.029">	</tspan><tspan x="103.35" y="0" fill="#FFFFFF" font-family="'Calibri-Bold'" font-size="21.2636">8474</tspan></text>
			</g>
			
				<text transform="matrix(-0.9601 -0.2585 0.2568 -0.9665 272.5269 283.6152)" fill="#FFFFFF" font-family="'Calibri-Bold'" font-size="21.2636">1111</text>
			<g>
				
					<text transform="matrix(-0.9624 -0.2495 0.2479 -0.9688 265.021 321.4102)" fill="#FFFFFF" font-family="'Calibri-Bold'" font-size="21.2642">enry_____ Larson _____</text>
			</g>
		</g>
	</g>
	<path fill="none" stroke="#0C328B" stroke-width="9.0138" stroke-linecap="round" stroke-miterlimit="10" d="M339.322,451.653
		c0,0-6.451,6.166-21.326,6.605c0,0-6.562,40.078-24.5,54.171c0,0,15.906,66.62-20.845,84.232"/>
	<path fill="#0C328B" stroke="#FFFFFF" stroke-width="4.5069" stroke-miterlimit="10" d="M379.4,346.093l104.285-124.915
		c3.587-4.586,2.801-11.233-1.756-14.843L210.67,4.519c-4.553-3.61-11.158-2.821-14.744,1.767L65.681,165.968
		c-3.588,4.585-2.801,11.233,1.756,14.842l207.505,151.353c0,0-11.146-38.829,23.726-55.212
		C328.496,262.939,377.446,341.863,379.4,346.093z"/>
	<path fill="none" stroke="#0C328B" stroke-width="9.0138" stroke-miterlimit="10" d="M1260,779.317
		c0,0-117.305-24.663-133.929-22.019c0,0-7.004-27.307-41.127-33.474c0,0-29.752-11.45-46.376-20.257c0,0-17.794-3.816-31.207-2.643
		c0,0-41.999-34.061-120.167-46.389c0,0-144.09-51.09-165.671-60.481c0,0-12.832-4.701-26.252,26.424c0,0-3.499,2.936,13.42,3.521
		c0,0,15.747-1.763,17.499,18.791c0,0,5.833,45.8-26.252,117.442c0,0-20.998,56.959-22.166,83.383c0,0-3.499,12.332-15.162,0
		l-42.587-35.819c0,0-5.25-7.046-7.001,15.27c0,0-22.749,76.339,3.502,82.798c0,0,121.334,56.957,149.918,66.353
		c28.585,9.396,64.753,32.297,92.171,42.866c0,0,81.666,29.359,112.584,39.932c30.914,10.569,236.253,79.862,257.834,93.955
		c0,0,14.003,4.697,28.584,5.283"/>
	<path fill="none" stroke="#0C328B" stroke-width="9.0138" stroke-miterlimit="10" d="M595.876,769.455
		c0,0,17.036,32.362,24.146,38.343"/>
	
		<path fill="none" stroke="#0C328B" stroke-width="9.0138" stroke-linecap="round" stroke-linejoin="round" stroke-miterlimit="10" d="
		M695.715,622.063c0,0-12.108-13.329-41.275-13.329c0,0,18.665,7.044,18.084,30.533c0,0,1.749,124.491-37.918,160.896
		c0,0-11.667-6.185-17.5-19.104"/>
	<path fill="none" stroke="#0C328B" stroke-width="9.0138" stroke-linecap="round" stroke-miterlimit="10" d="M654.44,608.734
		c0,0-21.583,0-46.083-55.2c0,0-74.085-169.116-79.334-182.622c0,0-2.333-13.506-25.084-17.03c0,0-12.249-16.442-37.333-19.964
		c0,0-48.149-6.529-60.983-17.687"/>
	<path fill="none" stroke="#0C328B" stroke-width="9.0138" stroke-linecap="round" stroke-miterlimit="10" d="M378.522,584.688
		c0,0-51.922-42.309-50.172-64.036c0,0-7-3.523-7.582,10.569c0,0,18.082,43.117,3.5,58.259c0,0-7.729,23.363-26.397,19.254"/>
	<path fill="none" stroke="#0C328B" stroke-width="4.5069" stroke-miterlimit="10" d="M269.871,595.668c0,0-14,6.605-3.938-11.452
		c0,0-6.552-19.743-21.865-35.599c0,0-3.073,8.154-0.01,23.859c0,0,6.101,27.596,10.063,30.457
		C258.081,605.794,272.714,604.915,269.871,595.668z"/>
	<path fill="none" stroke="#0C328B" stroke-width="4.5069" stroke-miterlimit="10" d="M291.599,570.367
		c0,0,9.991,15.391,8.459,23.319c0,0-11.594,15.707-2.188,15.048c0,0-13.122,6.411-14.219-7.563l-0.804-14.321"/>
	<path fill="none" stroke="#0C328B" stroke-width="9.0138" stroke-miterlimit="10" d="M621.599,809.124
		c0,0,12.163,10.23,21.901,25.246c12.924,19.926,6.602,59.189-16.704,76.295"/>
	<g>
		<path fill="none" stroke="#0C328B" stroke-width="4.5069" stroke-miterlimit="10" d="M728.607,631.647
			c0,0,158.005,73.384,196.503,72.803c38.5-0.585,120.168,15.851,176.171,62.83c56,46.98,129.245,45.815,156.249,46.986"/>
		<path fill="none" stroke="#0C328B" stroke-width="4.5069" stroke-miterlimit="10" d="M725.763,668.632
			c0,0,148.009,62.247,163.179,63.422c15.165,1.171,141.166,21.138,204.17,68.11c34.387,25.639,129.895,21.167,164.159,55.214"/>
		<path fill="none" stroke="#0C328B" stroke-width="4.5069" stroke-miterlimit="10" d="M719.467,704.45
			c0,0,144.637,66.357,212.467,75.753c67.838,9.396,130.839,35.232,158.84,63.417c28.002,28.188,33.83,15.01,87.496,30.406
			c53.674,15.398,72.22,15.418,78.737,22.453"/>
		<path fill="none" stroke="#0C328B" stroke-width="4.5069" stroke-miterlimit="10" d="M703.181,752.772
			c0,0,146.091,61.488,189.255,69.71c43.166,8.22,137.668,32.625,165.67,51.544c28,18.923,60.67,35.364,74.666,36.536
			c14.003,1.175,111.287,27.028,123.939,32.895"/>
		<path fill="none" stroke="#0C328B" stroke-width="4.5069" stroke-miterlimit="10" d="M688.902,793.3
			c0,0,97.367,55.019,179.035,71.463c81.663,16.439,130.667,30.535,201.832,66.941c71.173,36.406,153.843,54.051,186.635,59.908"/>
		<path fill="none" stroke="#0C328B" stroke-width="4.5069" stroke-miterlimit="10" d="M677.772,843.617
			c0,0,110.826,57.552,159.828,64.596c49.004,7.049,120.168,10.571,175.004,51.679c54.836,41.103,99.164,37.582,122.502,45.801
			c23.332,8.221,105.439,32.92,121.012,30.554"/>
		<path fill="none" stroke="#0C328B" stroke-width="4.5069" stroke-miterlimit="10" d="M636.481,901.169
			c0,0,150.951,61.069,180.119,59.893c29.166-1.17,94.169,17.646,115.334,30.551c21.168,12.907,149.506,57.531,168.17,68.102
			c18.672,10.569,123.508,54.025,156.3,54.025"/>
		<path fill="none" stroke="#0C328B" stroke-width="4.5069" stroke-miterlimit="10" d="M649.764,861.238
			c0,0,101.505,52.849,155.171,61.068c53.668,8.222,162.169,42.309,211.168,69.306c48.999,26.996,174.841,79.848,240.301,79.848"/>
		<path fill="none" stroke="#0C328B" stroke-width="4.5069" stroke-miterlimit="10" d="M731.441,608.734
			c0,0,155.674,68.154,242.334,72.246"/>
		<path fill="none" stroke="#0C328B" stroke-width="4.5069" stroke-miterlimit="10" d="M1041.7,705.185
			c0,0,52.568,30.727,68.906,47.588c16.332,16.859,57.195,32.489,147.059,40.527"/>
	</g>
	<path fill="none" stroke="#0C328B" stroke-width="9.0138" stroke-miterlimit="10" d="M725.763,639.54
		c0,0,10.578-22.659,2.879-42.589"/>
	<path fill="#FFFFFF" d="M349.805,302.855l44.027-57.659l-84.362-64.088l-49.225,59.993l46.926,35.065
		C307.171,276.166,331.08,284.2,349.805,302.855z"/>
	<g>
		<text transform="matrix(-0.7714 -0.6342 0.6301 -0.7766 264.2686 217.3916)"><tspan x="0" y="0" fill="#FFFFFF" font-family="'Calibri-Bold'" font-size="21.217">586</tspan><tspan x="32.26" y="0" fill="#FFFFFF" font-family="'Calibri-Bold'" font-size="21.217" letter-spacing="-2.003">	</tspan><tspan x="34.385" y="0" fill="#FFFFFF" font-family="'Calibri-Bold'" font-size="21.217">6 5842</tspan><tspan x="92.949" y="0" fill="#FFFFFF" font-family="'Calibri-Bold'" font-size="21.217" letter-spacing="5.007">	</tspan><tspan x="103.156" y="0" fill="#FFFFFF" font-family="'Calibri-Bold'" font-size="21.217">8474</tspan></text>
	</g>
	
		<text transform="matrix(-0.7714 -0.6342 0.6301 -0.7766 310.6943 253.2437)" fill="#FFFFFF" font-family="'Calibri-Bold'" font-size="21.217">1111</text>
	<g>
		
			<text transform="matrix(-0.7772 -0.6269 0.6228 -0.7824 288.3545 284.7803)" fill="#FFFFFF" font-family="'Calibri-Bold'" font-size="21.2183">enry_____ Larson _____</text>
	</g>
	<path fill="none" stroke="#0C328B" stroke-width="9.0138" stroke-miterlimit="10" d="M640.836,793.3
		c0,0-33.649-16.626-62.816-34.238c0,0-69.417-42.867-89.249-58.723c0,0-69.418-26.18-107.919-110.858
		c0,0-25.083-48.275-37.333-120.504c0,0-7-38.168-21.001-52.261c0,0-65.653-79.213-44.068-117.381"/>
	<path fill="#FFFFFF" stroke="#0C328B" stroke-width="4.5069" stroke-miterlimit="10" d="M332.719,306.936
		c1.987,3.338-1.41,14.238-16.53,22.753c-17.72,9.983-25.018,6.841-27.004,3.502l-14.029-38.296
		c-1.987-3.338,4.077-12.708,11.281-17.763c9.626-6.753,19.767-6.547,21.753-3.209L332.719,306.936z"/>
	<path fill="none" stroke="#0C328B" stroke-width="9.0138" stroke-linecap="round" stroke-miterlimit="10" d="M312.918,275.336
		c6.527,0.444,13.691,4.195,21.267,11.017c0,0,31.5,29.36,46.667,62.831c0,0,36.169,82.797,50.168,98.066
		c0,0,34.417,32.297,40.251,44.629"/>
</g>
</svg>
